# xmcd
#
# Track frame offsets:
# 150
# 15242
# 29925
# 48607
# 63835
# 76192
# 87354
# 107415
# 117287
# 129500
# 143920
# 159045
#
# Disc length: 2302 seconds
#
#
# Revision: 0
# Processed by: cddbd v1.5.2PL0 Copyright (c) Steve Scherf et al.
# Submitted via: Nero 7, 11, 10, 0 
#
DISCID=9008fc0c
DTITLE=Pork Chop Tom and Nighttrain - Big Fat Mama
DYEAR=2001
DGENRE=Blues
TTITLE0=So You Know
TTITLE1=My Babe
TTITLE2=Marcie's Rhumba
TTITLE3=I'm Tired
TTITLE4=Domino
TTITLE5=Certainly All
TTITLE6=Poor Boy
TTITLE7=Big Fat Mama
TTITLE8=Nighttrain Goin' home
TTITLE9=I Like It Like That
TTITLE10=Suzanne
TTITLE11=Life's A Gamble
EXTD=
EXTT0=So You Know
EXTT1=My Babe
EXTT2=Marcie's Rhumba
EXTT3=I'm Tired
EXTT4=Domino
EXTT5=Certainly All
EXTT6=Poor Boy
EXTT7=Big Fat Mama
EXTT8=Nighttrain Goin' home
EXTT9=I Like It Like That
EXTT10=Suzanne
EXTT11=Life's A Gamble
PLAYORDER=
